<mxfile host="Electron" modified="2024-11-02T14:54:33.540Z" agent="Mozilla/5.0 (Windows NT 10.0; Win64; x64) AppleWebKit/537.36 (KHTML, like Gecko) draw.io/23.1.5 Chrome/120.0.6099.109 Electron/28.1.0 Safari/537.36" etag="Lebu_TJm1LfRZBN2OHQ7" version="23.1.5" type="device">
  <diagram name="第 1 页" id="98liTgK0evC2u9khbW-g">
    <mxGraphModel dx="4052" dy="1613" grid="1" gridSize="10" guides="1" tooltips="1" connect="1" arrows="1" fold="1" page="1" pageScale="1" pageWidth="827" pageHeight="1169" math="0" shadow="0">
      <root>
        <mxCell id="0" />
        <mxCell id="1" parent="0" />
        <mxCell id="QdSwCpeambw2j9io5T8B-1" value="" style="whiteSpace=wrap;html=1;fillColor=#CCFFCC;" vertex="1" parent="1">
          <mxGeometry x="-20" y="20" width="560" height="910" as="geometry" />
        </mxCell>
        <mxCell id="QdSwCpeambw2j9io5T8B-3" value="&lt;font style=&quot;font-size: 24px;&quot;&gt;ConsumerImpl.receiveAsync&lt;/font&gt;" style="text;html=1;align=center;verticalAlign=middle;whiteSpace=wrap;rounded=0;" vertex="1" parent="1">
          <mxGeometry x="120" y="30" width="60" height="30" as="geometry" />
        </mxCell>
        <mxCell id="QdSwCpeambw2j9io5T8B-40" style="edgeStyle=orthogonalEdgeStyle;rounded=0;orthogonalLoop=1;jettySize=auto;html=1;entryX=0.5;entryY=0;entryDx=0;entryDy=0;" edge="1" parent="1" source="QdSwCpeambw2j9io5T8B-4" target="QdSwCpeambw2j9io5T8B-6">
          <mxGeometry relative="1" as="geometry" />
        </mxCell>
        <mxCell id="QdSwCpeambw2j9io5T8B-4" value="是否配置消息监听器" style="rhombus;whiteSpace=wrap;html=1;" vertex="1" parent="1">
          <mxGeometry x="80" y="100" width="310" height="60" as="geometry" />
        </mxCell>
        <mxCell id="QdSwCpeambw2j9io5T8B-6" value="避免消息处理方式的冲突" style="whiteSpace=wrap;html=1;" vertex="1" parent="1">
          <mxGeometry x="140" y="190" width="190" height="40" as="geometry" />
        </mxCell>
        <mxCell id="QdSwCpeambw2j9io5T8B-7" value="确保消费者处于有效状态" style="whiteSpace=wrap;html=1;" vertex="1" parent="1">
          <mxGeometry x="140" y="280" width="200" height="40" as="geometry" />
        </mxCell>
        <mxCell id="QdSwCpeambw2j9io5T8B-9" value="" style="whiteSpace=wrap;html=1;" vertex="1" parent="1">
          <mxGeometry y="360" width="520" height="550" as="geometry" />
        </mxCell>
        <mxCell id="QdSwCpeambw2j9io5T8B-10" value="internalReceiveAsync" style="text;html=1;align=center;verticalAlign=middle;resizable=0;points=[];autosize=1;strokeColor=none;fillColor=none;" vertex="1" parent="1">
          <mxGeometry y="360" width="140" height="30" as="geometry" />
        </mxCell>
        <mxCell id="QdSwCpeambw2j9io5T8B-43" style="edgeStyle=orthogonalEdgeStyle;rounded=0;orthogonalLoop=1;jettySize=auto;html=1;entryX=0.5;entryY=0;entryDx=0;entryDy=0;" edge="1" parent="1" source="QdSwCpeambw2j9io5T8B-12" target="QdSwCpeambw2j9io5T8B-13">
          <mxGeometry relative="1" as="geometry" />
        </mxCell>
        <mxCell id="QdSwCpeambw2j9io5T8B-12" value="incomingMessages.poll()&lt;br&gt;取消息" style="whiteSpace=wrap;html=1;" vertex="1" parent="1">
          <mxGeometry x="140" y="410" width="200" height="60" as="geometry" />
        </mxCell>
        <mxCell id="QdSwCpeambw2j9io5T8B-44" style="edgeStyle=orthogonalEdgeStyle;rounded=0;orthogonalLoop=1;jettySize=auto;html=1;entryX=0.5;entryY=0;entryDx=0;entryDy=0;" edge="1" parent="1" source="QdSwCpeambw2j9io5T8B-13" target="QdSwCpeambw2j9io5T8B-14">
          <mxGeometry relative="1" as="geometry">
            <Array as="points">
              <mxPoint x="235" y="605" />
              <mxPoint x="110" y="605" />
            </Array>
          </mxGeometry>
        </mxCell>
        <mxCell id="QdSwCpeambw2j9io5T8B-13" value="message == null" style="rhombus;whiteSpace=wrap;html=1;" vertex="1" parent="1">
          <mxGeometry x="160" y="505" width="150" height="80" as="geometry" />
        </mxCell>
        <mxCell id="QdSwCpeambw2j9io5T8B-14" value="expectMoreIncomingMessages" style="whiteSpace=wrap;html=1;" vertex="1" parent="1">
          <mxGeometry x="20" y="620" width="180" height="50" as="geometry" />
        </mxCell>
        <mxCell id="QdSwCpeambw2j9io5T8B-15" value="&lt;font style=&quot;font-size: 12px;&quot;&gt;&lt;font style=&quot;&quot;&gt;pendingReceives 是一个关键的数据结构，负责管理异步接收消息 (receiveAsync) 的请求&lt;br&gt;&lt;/font&gt;&lt;br&gt;&lt;br&gt;&lt;/font&gt;&lt;div&gt;&lt;font style=&quot;font-size: 12px;&quot;&gt;当新的消息到达时，系统会检查 pendingReceives 队列。&lt;/font&gt;&lt;/div&gt;&lt;div&gt;&lt;font style=&quot;font-size: 12px;&quot;&gt;如果存在挂起的接收请求，则从 pendingReceives 队列中取出一个 CompletableFuture，并完成它，将消息传递给等待的调用方。&lt;/font&gt;&lt;/div&gt;" style="shape=note;whiteSpace=wrap;html=1;backgroundOutline=1;darkOpacity=0.05;align=left;" vertex="1" parent="1">
          <mxGeometry x="-400" y="540" width="240" height="210" as="geometry" />
        </mxCell>
        <mxCell id="QdSwCpeambw2j9io5T8B-17" value="" style="endArrow=none;dashed=1;html=1;dashPattern=1 3;strokeWidth=2;rounded=0;entryX=0;entryY=0.5;entryDx=0;entryDy=0;exitX=0;exitY=0;exitDx=240;exitDy=120;exitPerimeter=0;" edge="1" parent="1" source="QdSwCpeambw2j9io5T8B-15" target="QdSwCpeambw2j9io5T8B-14">
          <mxGeometry width="50" height="50" relative="1" as="geometry">
            <mxPoint x="-290" y="880" as="sourcePoint" />
            <mxPoint x="-240" y="830" as="targetPoint" />
          </mxGeometry>
        </mxCell>
        <mxCell id="QdSwCpeambw2j9io5T8B-18" value="pendingReceives.add(result);&lt;br&gt;请求挂起" style="whiteSpace=wrap;html=1;" vertex="1" parent="1">
          <mxGeometry x="10" y="710" width="220" height="60" as="geometry" />
        </mxCell>
        <mxCell id="QdSwCpeambw2j9io5T8B-19" value="cancellationHandler.setCancelAction(() -&amp;gt; pendingReceives.remove(result));" style="whiteSpace=wrap;html=1;" vertex="1" parent="1">
          <mxGeometry x="10" y="820" width="240" height="60" as="geometry" />
        </mxCell>
        <mxCell id="QdSwCpeambw2j9io5T8B-20" value="&lt;div&gt;&lt;span style=&quot;background-color: initial;&quot;&gt;&amp;nbsp; &amp;nbsp; beforeConsume(message);&lt;/span&gt;&lt;br&gt;&lt;/div&gt;" style="whiteSpace=wrap;html=1;" vertex="1" parent="1">
          <mxGeometry x="280" y="710" width="230" height="60" as="geometry" />
        </mxCell>
        <mxCell id="QdSwCpeambw2j9io5T8B-47" style="edgeStyle=orthogonalEdgeStyle;rounded=0;orthogonalLoop=1;jettySize=auto;html=1;entryX=0.5;entryY=0;entryDx=0;entryDy=0;" edge="1" parent="1" source="QdSwCpeambw2j9io5T8B-21" target="QdSwCpeambw2j9io5T8B-20">
          <mxGeometry relative="1" as="geometry" />
        </mxCell>
        <mxCell id="QdSwCpeambw2j9io5T8B-21" value="&lt;div&gt;messageProcessed(message);&lt;/div&gt;" style="whiteSpace=wrap;html=1;" vertex="1" parent="1">
          <mxGeometry x="290" y="615" width="210" height="60" as="geometry" />
        </mxCell>
        <mxCell id="QdSwCpeambw2j9io5T8B-23" value="" style="whiteSpace=wrap;html=1;" vertex="1" parent="1">
          <mxGeometry x="650" y="470" width="360" height="920" as="geometry" />
        </mxCell>
        <mxCell id="QdSwCpeambw2j9io5T8B-22" value="messageProcessed" style="text;html=1;align=center;verticalAlign=middle;resizable=0;points=[];autosize=1;strokeColor=none;fillColor=none;" vertex="1" parent="1">
          <mxGeometry x="650" y="460" width="130" height="30" as="geometry" />
        </mxCell>
        <mxCell id="QdSwCpeambw2j9io5T8B-24" value="负责记录应用程序已处理一条消息的事件。它通过更新相关的指标（如已处理的消息数量和字节数）和调整流控许可" style="shape=note;whiteSpace=wrap;html=1;backgroundOutline=1;darkOpacity=0.05;" vertex="1" parent="1">
          <mxGeometry x="1110" y="360" width="260" height="100" as="geometry" />
        </mxCell>
        <mxCell id="QdSwCpeambw2j9io5T8B-25" value="记录最后一条已处理消息的 ID" style="whiteSpace=wrap;html=1;" vertex="1" parent="1">
          <mxGeometry x="730" y="655" width="190" height="60" as="geometry" />
        </mxCell>
        <mxCell id="QdSwCpeambw2j9io5T8B-53" style="edgeStyle=orthogonalEdgeStyle;rounded=0;orthogonalLoop=1;jettySize=auto;html=1;entryX=0.5;entryY=0;entryDx=0;entryDy=0;" edge="1" parent="1" source="QdSwCpeambw2j9io5T8B-26" target="QdSwCpeambw2j9io5T8B-27">
          <mxGeometry relative="1" as="geometry" />
        </mxCell>
        <mxCell id="QdSwCpeambw2j9io5T8B-26" value="预取消息数量，减少一条" style="whiteSpace=wrap;html=1;" vertex="1" parent="1">
          <mxGeometry x="720" y="740" width="220" height="60" as="geometry" />
        </mxCell>
        <mxCell id="QdSwCpeambw2j9io5T8B-54" style="edgeStyle=orthogonalEdgeStyle;rounded=0;orthogonalLoop=1;jettySize=auto;html=1;entryX=0.5;entryY=0;entryDx=0;entryDy=0;" edge="1" parent="1" source="QdSwCpeambw2j9io5T8B-27" target="QdSwCpeambw2j9io5T8B-29">
          <mxGeometry relative="1" as="geometry" />
        </mxCell>
        <mxCell id="QdSwCpeambw2j9io5T8B-27" value="已接收消息计数器，增加一条" style="whiteSpace=wrap;html=1;" vertex="1" parent="1">
          <mxGeometry x="720" y="830" width="220" height="60" as="geometry" />
        </mxCell>
        <mxCell id="QdSwCpeambw2j9io5T8B-55" style="edgeStyle=orthogonalEdgeStyle;rounded=0;orthogonalLoop=1;jettySize=auto;html=1;entryX=0.5;entryY=0;entryDx=0;entryDy=0;" edge="1" parent="1" source="QdSwCpeambw2j9io5T8B-29" target="QdSwCpeambw2j9io5T8B-30">
          <mxGeometry relative="1" as="geometry" />
        </mxCell>
        <mxCell id="QdSwCpeambw2j9io5T8B-29" value="预取字节数,已接收字节数更新" style="whiteSpace=wrap;html=1;" vertex="1" parent="1">
          <mxGeometry x="720" y="910" width="220" height="60" as="geometry" />
        </mxCell>
        <mxCell id="QdSwCpeambw2j9io5T8B-56" style="edgeStyle=orthogonalEdgeStyle;rounded=0;orthogonalLoop=1;jettySize=auto;html=1;entryX=0.5;entryY=0;entryDx=0;entryDy=0;" edge="1" parent="1" source="QdSwCpeambw2j9io5T8B-30" target="QdSwCpeambw2j9io5T8B-31">
          <mxGeometry relative="1" as="geometry" />
        </mxCell>
        <mxCell id="QdSwCpeambw2j9io5T8B-30" value="increaseAvailablePermitsincreaseAvailablePermits(currentCnx);" style="whiteSpace=wrap;html=1;" vertex="1" parent="1">
          <mxGeometry x="650" y="1000" width="360" height="60" as="geometry" />
        </mxCell>
        <mxCell id="QdSwCpeambw2j9io5T8B-59" style="edgeStyle=orthogonalEdgeStyle;rounded=0;orthogonalLoop=1;jettySize=auto;html=1;entryX=0.5;entryY=0;entryDx=0;entryDy=0;" edge="1" parent="1" source="QdSwCpeambw2j9io5T8B-31" target="QdSwCpeambw2j9io5T8B-32">
          <mxGeometry relative="1" as="geometry" />
        </mxCell>
        <mxCell id="QdSwCpeambw2j9io5T8B-31" value="stats.updateNumMsgsReceived(msg)&lt;br&gt;更新msg状态" style="whiteSpace=wrap;html=1;" vertex="1" parent="1">
          <mxGeometry x="720" y="1100" width="220" height="60" as="geometry" />
        </mxCell>
        <mxCell id="QdSwCpeambw2j9io5T8B-32" value="trackMessage(msg);" style="whiteSpace=wrap;html=1;" vertex="1" parent="1">
          <mxGeometry x="770" y="1210" width="120" height="60" as="geometry" />
        </mxCell>
        <mxCell id="QdSwCpeambw2j9io5T8B-51" style="edgeStyle=orthogonalEdgeStyle;rounded=0;orthogonalLoop=1;jettySize=auto;html=1;entryX=0.527;entryY=-0.006;entryDx=0;entryDy=0;entryPerimeter=0;" edge="1" parent="1" source="QdSwCpeambw2j9io5T8B-33" target="QdSwCpeambw2j9io5T8B-25">
          <mxGeometry relative="1" as="geometry" />
        </mxCell>
        <mxCell id="QdSwCpeambw2j9io5T8B-33" value="&lt;div&gt;ClientCnx currentCnx = cnx();&lt;/div&gt;&lt;div&gt;&amp;nbsp; &amp;nbsp; &amp;nbsp; &amp;nbsp; ClientCnx msgCnx = ((MessageImpl&amp;lt;?&amp;gt;) msg).getCnx();&lt;/div&gt;" style="whiteSpace=wrap;html=1;" vertex="1" parent="1">
          <mxGeometry x="650" y="525" width="360" height="60" as="geometry" />
        </mxCell>
        <mxCell id="QdSwCpeambw2j9io5T8B-34" value="消费者与 Pulsar Broker 之间通信的网络连接。&lt;br&gt;所受到的消息从哪条网络连接获取到。" style="shape=note;whiteSpace=wrap;html=1;backgroundOutline=1;darkOpacity=0.05;" vertex="1" parent="1">
          <mxGeometry x="1110" y="515" width="280" height="100" as="geometry" />
        </mxCell>
        <mxCell id="QdSwCpeambw2j9io5T8B-35" value="decreaseIncomingMessageSize(msg);" style="whiteSpace=wrap;html=1;" vertex="1" parent="1">
          <mxGeometry x="715" y="1330" width="220" height="60" as="geometry" />
        </mxCell>
        <mxCell id="QdSwCpeambw2j9io5T8B-39" value="减少当前消费者接收队列中未处理消息的总字节数" style="shape=note;whiteSpace=wrap;html=1;backgroundOutline=1;darkOpacity=0.05;" vertex="1" parent="1">
          <mxGeometry x="1110" y="1290" width="260" height="100" as="geometry" />
        </mxCell>
        <mxCell id="QdSwCpeambw2j9io5T8B-41" style="edgeStyle=orthogonalEdgeStyle;rounded=0;orthogonalLoop=1;jettySize=auto;html=1;entryX=0.457;entryY=0.05;entryDx=0;entryDy=0;entryPerimeter=0;" edge="1" parent="1" source="QdSwCpeambw2j9io5T8B-6" target="QdSwCpeambw2j9io5T8B-7">
          <mxGeometry relative="1" as="geometry" />
        </mxCell>
        <mxCell id="QdSwCpeambw2j9io5T8B-42" style="edgeStyle=orthogonalEdgeStyle;rounded=0;orthogonalLoop=1;jettySize=auto;html=1;entryX=0.463;entryY=0.002;entryDx=0;entryDy=0;entryPerimeter=0;" edge="1" parent="1" source="QdSwCpeambw2j9io5T8B-7" target="QdSwCpeambw2j9io5T8B-9">
          <mxGeometry relative="1" as="geometry" />
        </mxCell>
        <mxCell id="QdSwCpeambw2j9io5T8B-45" style="edgeStyle=orthogonalEdgeStyle;rounded=0;orthogonalLoop=1;jettySize=auto;html=1;entryX=0.524;entryY=0.04;entryDx=0;entryDy=0;entryPerimeter=0;" edge="1" parent="1" source="QdSwCpeambw2j9io5T8B-13" target="QdSwCpeambw2j9io5T8B-21">
          <mxGeometry relative="1" as="geometry">
            <Array as="points">
              <mxPoint x="235" y="605" />
              <mxPoint x="400" y="605" />
            </Array>
          </mxGeometry>
        </mxCell>
        <mxCell id="QdSwCpeambw2j9io5T8B-46" style="edgeStyle=orthogonalEdgeStyle;rounded=0;orthogonalLoop=1;jettySize=auto;html=1;entryX=0.456;entryY=-0.019;entryDx=0;entryDy=0;entryPerimeter=0;" edge="1" parent="1" source="QdSwCpeambw2j9io5T8B-14" target="QdSwCpeambw2j9io5T8B-18">
          <mxGeometry relative="1" as="geometry" />
        </mxCell>
        <mxCell id="QdSwCpeambw2j9io5T8B-48" style="edgeStyle=orthogonalEdgeStyle;rounded=0;orthogonalLoop=1;jettySize=auto;html=1;entryX=0.458;entryY=0.014;entryDx=0;entryDy=0;entryPerimeter=0;" edge="1" parent="1" source="QdSwCpeambw2j9io5T8B-18" target="QdSwCpeambw2j9io5T8B-19">
          <mxGeometry relative="1" as="geometry" />
        </mxCell>
        <mxCell id="QdSwCpeambw2j9io5T8B-50" value="" style="endArrow=none;dashed=1;html=1;dashPattern=1 3;strokeWidth=2;rounded=0;exitX=1;exitY=0.5;exitDx=0;exitDy=0;entryX=-0.014;entryY=0.209;entryDx=0;entryDy=0;entryPerimeter=0;" edge="1" parent="1" source="QdSwCpeambw2j9io5T8B-21" target="QdSwCpeambw2j9io5T8B-23">
          <mxGeometry width="50" height="50" relative="1" as="geometry">
            <mxPoint x="590" y="680" as="sourcePoint" />
            <mxPoint x="640" y="630" as="targetPoint" />
          </mxGeometry>
        </mxCell>
        <mxCell id="QdSwCpeambw2j9io5T8B-52" style="edgeStyle=orthogonalEdgeStyle;rounded=0;orthogonalLoop=1;jettySize=auto;html=1;entryX=0.471;entryY=-0.005;entryDx=0;entryDy=0;entryPerimeter=0;" edge="1" parent="1" source="QdSwCpeambw2j9io5T8B-25" target="QdSwCpeambw2j9io5T8B-26">
          <mxGeometry relative="1" as="geometry" />
        </mxCell>
        <mxCell id="QdSwCpeambw2j9io5T8B-60" style="edgeStyle=orthogonalEdgeStyle;rounded=0;orthogonalLoop=1;jettySize=auto;html=1;entryX=0.525;entryY=-0.007;entryDx=0;entryDy=0;entryPerimeter=0;" edge="1" parent="1" source="QdSwCpeambw2j9io5T8B-32" target="QdSwCpeambw2j9io5T8B-35">
          <mxGeometry relative="1" as="geometry" />
        </mxCell>
        <mxCell id="QdSwCpeambw2j9io5T8B-61" value="" style="endArrow=none;dashed=1;html=1;dashPattern=1 3;strokeWidth=2;rounded=0;exitX=1;exitY=0.5;exitDx=0;exitDy=0;entryX=0;entryY=0.45;entryDx=0;entryDy=0;entryPerimeter=0;" edge="1" parent="1" target="QdSwCpeambw2j9io5T8B-34">
          <mxGeometry width="50" height="50" relative="1" as="geometry">
            <mxPoint x="1010" y="556.5" as="sourcePoint" />
            <mxPoint x="1155" y="573.5" as="targetPoint" />
          </mxGeometry>
        </mxCell>
        <mxCell id="QdSwCpeambw2j9io5T8B-63" value="" style="endArrow=none;dashed=1;html=1;dashPattern=1 3;strokeWidth=2;rounded=0;entryX=0;entryY=0.45;entryDx=0;entryDy=0;entryPerimeter=0;" edge="1" parent="1" source="QdSwCpeambw2j9io5T8B-22">
          <mxGeometry width="50" height="50" relative="1" as="geometry">
            <mxPoint x="1010" y="406.5" as="sourcePoint" />
            <mxPoint x="1110" y="410" as="targetPoint" />
          </mxGeometry>
        </mxCell>
        <mxCell id="QdSwCpeambw2j9io5T8B-64" value="" style="endArrow=none;dashed=1;html=1;dashPattern=1 3;strokeWidth=2;rounded=0;exitX=1;exitY=0.5;exitDx=0;exitDy=0;" edge="1" parent="1" source="QdSwCpeambw2j9io5T8B-35">
          <mxGeometry width="50" height="50" relative="1" as="geometry">
            <mxPoint x="990" y="1288.25" as="sourcePoint" />
            <mxPoint x="1100" y="1330" as="targetPoint" />
          </mxGeometry>
        </mxCell>
      </root>
    </mxGraphModel>
  </diagram>
</mxfile>
